<?xml version="1.0" encoding="UTF-8"?>
<!DOCTYPE svg PUBLIC "-//W3C//DTD SVG 1.1//EN" "http://www.w3.org/Graphics/SVG/1.1/DTD/svg11.dtd">
<!-- Creator: CorelDRAW 2020 (64-Bit) -->
<svg xmlns="http://www.w3.org/2000/svg" xml:space="preserve" width="2480px" height="3508px" version="1.1" style="shape-rendering:geometricPrecision; text-rendering:geometricPrecision; image-rendering:optimizeQuality; fill-rule:evenodd; clip-rule:evenodd"
viewBox="0 0 2480 3507.43"
 xmlns:xlink="http://www.w3.org/1999/xlink"
 xmlns:xodm="http://www.corel.com/coreldraw/odm/2003">
 <defs>
  <style type="text/css">
   <![CDATA[
    .fil0 {fill:#0033FF}
   ]]>
  </style>
 </defs>
 <g id="Capa_x0020_1">
  <metadata id="CorelCorpID_0Corel-Layer"/>
  <g id="_1181855824">
   <path class="fil0" d="M1372.01 565.95c-561.56,0 -1016.79,455.23 -1016.79,1016.79 0,561.55 455.23,1016.78 1016.79,1016.78 561.55,0 1016.78,-455.23 1016.78,-1016.78 0,-561.56 -455.23,-1016.79 -1016.78,-1016.79zm-590.7 1093.17c71.27,0 129.05,57.78 129.05,129.05 0,71.27 -57.78,129.04 -129.05,129.04 -71.27,0 -129.04,-57.77 -129.04,-129.04 0,-71.27 57.77,-129.05 129.04,-129.05zm1171.51 283.54l0 0 0.03 -0.01c4.72,-1.39 9.41,-2.83 14.04,-4.33l-0.87 -0.12c4.29,-1.43 8.54,-2.91 12.25,-4.5 28.57,-12.26 57.99,-28.96 88.2,-50.13 7.12,-14.52 11.13,-30.87 11.13,-48.18 0,-57.48 -44.18,-104.53 -100.1,-108.4 -23.28,17.36 -45.57,30.89 -66.86,40.56 -10.06,4.59 -20.36,8.64 -30.9,12.17 -37.74,10.7 -78.29,16.01 -121.54,16.01 -68.46,0 -130.57,-13.77 -186.57,-41.51 -53.71,-26.74 -95.85,-63.21 -126.2,-109.42l-27.77 -57.65c-11.42,-34.61 -17.17,-72.2 -17.17,-112.7 0,-90.02 30.81,-165.62 92.64,-227.01 61.61,-61.4 137.65,-92.2 227.67,-92.2 39.45,0 77.41,6.13 113.91,18.41l0.55 0.82c31.91,10.99 62.69,26.69 92.37,47.09 56.85,-2.11 102.29,-48.86 102.29,-106.24 0,-15.33 -3.25,-29.91 -9.09,-43.08 -23.38,-15.42 -48.06,-29.05 -74.01,-40.89 -15.71,-7.13 -31.54,-13.5 -47.5,-19.08l1.08 -0.27c-57.05,-19.87 -115.72,-29.8 -176.11,-29.8 -91.55,0 -176.75,22.28 -255.85,66.63 -79.31,44.36 -140.05,102.91 -182.43,175.89 -8.17,13.99 -15.56,28.37 -22.15,43.12l-132.18 -274.38 -9.91 19.19 -293.35 588.78 -8.64 17.33c73.07,6.07 130.61,72.06 130.61,152.56 0,18.79 -3.14,36.78 -8.87,53.4l96.49 -231.08 82.78 -198.24 107.16 259.12 0.91 0c25.85,66.15 67.23,124.55 124.18,175.08 104.41,92.85 238.65,139.17 402.47,139.17 72.16,0 138.01,-8.66 197.31,-26.11zm-506.15 -295.3l3.03 5.63 -0.32 0 -2.71 -5.63zm-685.67 469.29c6.85,4.2 12.67,7.11 17.47,8.81 4.77,1.68 9.44,2.51 14,2.51 4.58,0 8.28,-1.02 11.09,-3.04 2.78,-2.02 4.16,-4.61 4.16,-7.78 0,-4.54 -4.95,-9.68 -14.89,-15.34 -1.6,-0.92 -2.83,-1.65 -3.69,-2.15l-7.53 -4.25c-7.31,-4.14 -12.74,-8.83 -16.25,-14.05 -3.54,-5.22 -5.3,-11.14 -5.3,-17.75 0,-8.97 3.38,-16.31 10.15,-22.05 6.74,-5.74 15.47,-8.59 26.16,-8.59 3.96,0 8.24,0.46 12.82,1.38 4.62,0.92 9.73,2.36 15.37,4.3l0 26.09c-5.38,-3.36 -10.46,-5.95 -15.29,-7.79 -4.82,-1.83 -8.91,-2.75 -12.29,-2.75 -3.75,0 -6.69,0.81 -8.84,2.41 -2.15,1.6 -3.23,3.8 -3.23,6.56 0,1.94 0.64,3.74 1.92,5.42 1.28,1.71 3.2,3.23 5.77,4.62l13.06 7.21c10.93,6.05 18.27,11.64 22.04,16.75 3.78,5.14 5.67,11.19 5.67,18.22 0,10.86 -3.7,19.64 -11.09,26.32 -7.42,6.69 -17.23,10.02 -29.47,10.02 -4.15,0 -8.66,-0.45 -13.53,-1.31 -4.85,-0.87 -10.22,-2.23 -16.04,-4.07l-2.24 -29.7zm296.18 31.46l0 -88.09 -35.39 0 0 -23.28 97.21 0 0 23.28 -35.23 0 0 88.09 -26.59 0zm276.88 -55.68c0,9.67 2.83,17.79 8.5,24.32 5.66,6.53 12.63,9.81 20.92,9.81 8.33,0 15.34,-3.25 20.97,-9.75 5.64,-6.53 8.44,-14.66 8.44,-24.38 0,-9.78 -2.8,-17.96 -8.44,-24.49 -5.63,-6.53 -12.64,-9.81 -20.97,-9.81 -8.29,0 -15.26,3.28 -20.92,9.81 -5.67,6.53 -8.5,14.71 -8.5,24.49zm-27.37 0c0,-8.26 1.42,-15.97 4.27,-23.16 2.84,-7.21 7.03,-13.63 12.56,-19.32 5.22,-5.42 11.3,-9.59 18.22,-12.48 6.9,-2.91 14.16,-4.35 21.74,-4.35 7.58,0 14.84,1.47 21.78,4.38 6.95,2.91 13.11,7.13 18.49,12.61 5.42,5.48 9.54,11.8 12.32,19.01 2.81,7.18 4.2,14.97 4.2,23.31 0,6.97 -0.98,13.52 -2.91,19.66 -1.97,6.13 -4.85,11.74 -8.71,16.83 -5.43,7.21 -12.09,12.82 -20,16.8 -7.92,4.02 -16.31,6.01 -25.17,6.01 -7.53,0 -14.74,-1.47 -21.63,-4.38 -6.9,-2.91 -13,-7.13 -18.33,-12.61 -5.53,-5.66 -9.72,-12.09 -12.56,-19.25 -2.85,-7.13 -4.27,-14.83 -4.27,-23.06zm344.13 -35.4l-4.38 0 0 30.83 5.61 0c6.71,0 11.82,-1.36 15.37,-4.06 3.53,-2.7 5.29,-6.61 5.29,-11.67 0,-5.32 -1.7,-9.15 -5.14,-11.53 -3.43,-2.39 -9.02,-3.57 -16.75,-3.57zm-30.18 91.08l0 -111.37 28.63 0c9.18,0 16.29,0.6 21.34,1.81 5.06,1.2 9.52,3.2 13.43,6.03 4.14,2.96 7.36,6.63 9.65,11.01 2.28,4.38 3.4,8.99 3.4,13.84 0,7.03 -1.78,13.17 -5.35,18.43 -3.56,5.27 -8.7,9.39 -15.41,12.38l33.98 47.87 -30.36 0 -29.73 -43.73 -3.78 0 0 43.73 -25.8 0zm282.08 0l0 -111.37 68.58 0 0 22.96 -42.79 0 0 20.14 36.65 0 0 22.81 -36.65 0 0 22.02 43.42 0 0 23.44 -69.21 0z"/>
   <path class="fil0" d="M312.82 466.56c-118.16,0 -213.93,95.78 -213.93,213.93 0,118.15 95.77,213.93 213.93,213.93 118.15,0 213.92,-95.78 213.92,-213.93 0,-118.15 -95.77,-213.93 -213.92,-213.93z"/>
   <path class="fil0" d="M664.08 807.93c-71.87,0 -131.22,-53.61 -140.24,-123.02l-2.23 0.02c-1.67,96.87 -70.28,177.42 -161.57,197.37l0.19 6.79c75.45,3.01 135.7,65.12 135.7,141.32 0,26.64 -7.37,51.55 -20.18,72.83l1.5 1.23c69.2,-127.99 165.04,-239.45 280.09,-326.95l-2.51 -2.55c-24.56,20.58 -56.21,32.96 -90.75,32.96z"/>
  </g>
  <circle class="fil0" cx="172.31" cy="1154.91" r="53.41"/>
  <circle class="fil0" cx="779.62" cy="399.98" r="127.34"/>
  <circle class="fil0" cx="411.68" cy="142.07" r="53.41"/>
 </g>
</svg>
